<svg xmlns="http://www.w3.org/2000/svg" width="32" height="32" viewBox="0 0 32 32">
  <style>
    path {
      fill: black;
    }
    @media (prefers-color-scheme: dark) {
      path { fill: white; }
    }
  </style>
  <g transform="scale(0.5)">
    <path stroke-width="2.65928" d="M57.77 1.486C55.027-.96 51.708.024 48.43 2.933a23.162 23.162 0 0 0-1.455 1.423c-5.609 5.949-10.813 16.966-12.43 25.38.63 1.276 1.123 2.907 1.447 4.151a34.688 34.688 0 0 1 .436 1.87s-.05-.19-.255-.788l-.133-.388a4.492 4.492 0 0 0-.088-.213c-.367-.85-1.377-2.646-1.824-3.427a87.306 87.306 0 0 0-1 3.127c1.287 2.35 2.069 6.382 2.069 6.382s-.067-.263-.391-1.175c-.284-.806-1.713-3.308-2.053-3.893-.577 2.138-.808 3.579-.6 3.93.403.68.786 1.856 1.121 3.154.76 2.925 1.29 6.489 1.29 6.489l.045.595a59.594 59.594 0 0 0 .15 7.308c.252 3.047.725 5.664 1.329 7.066l.412-.224c-.888-2.76-1.25-6.38-1.09-10.55.239-6.376 1.707-14.067 4.417-22.082 4.582-12.1 10.937-21.809 16.753-26.446-5.3 4.786-12.477 20.29-14.626 26.029-2.404 6.425-4.108 12.456-5.135 18.234 1.771-5.417 7.502-7.743 7.502-7.743s2.81-3.468 6.095-8.42c-1.968.45-5.199 1.218-6.281 1.673-1.596.667-2.027.896-2.027.896s5.173-3.148 9.608-4.574c6.1-9.608 12.749-23.258 6.056-29.23M8.38 2.93A4.898 4.898 0 0 0 3.5 7.813v44.165a4.893 4.893 0 0 0 4.88 4.877h25.045a61.038 61.038 0 0 1-.138-7.198c-.016-.165-.03-.375-.043-.532a71.827 71.827 0 0 0-1.258-6.324c-.322-1.25-.731-2.388-.981-2.81-.309-.525-.26-.825-.258-1.15 0-.319.04-.651.098-1.026a26.54 26.54 0 0 1 .623-2.78l.577-.074c-.045-.093-.038-.172-.083-.258l-.109-1.013a87.224 87.224 0 0 1 1.016-3.175l.532-.05c-.021-.043-.027-.101-.048-.141l-.114-.84c1.675-8.723 6.88-19.794 12.764-26.038.176-.183.354-.34.527-.516Z"/>
  </g>
</svg>
